<?xml version="1.0" standalone="no"?>
<!DOCTYPE svg PUBLIC "-//W3C//DTD SVG 20010904//EN"
 "http://www.w3.org/TR/2001/REC-SVG-20010904/DTD/svg10.dtd">
<svg version="1.0" xmlns="http://www.w3.org/2000/svg"
 width="512.000000pt" height="512.000000pt" viewBox="0 0 512.000000 512.000000"
 preserveAspectRatio="xMidYMid meet">

<g transform="translate(0.000000,512.000000) scale(0.100000,-0.100000)"
fill="#fff" stroke="none">
<path d="M0 4114 l0 -137 41 7 c114 18 211 116 226 227 l6 39 -137 0 -136 0 0
-136z"/>
<path d="M445 4208 c-19 -119 -56 -195 -132 -272 -60 -60 -172 -116 -251 -125
l-57 -6 -3 -122 -3 -122 393 -3 c388 -3 394 -3 440 -26 57 -28 131 -108 150
-160 10 -29 13 -202 13 -842 l0 -805 -23 -45 c-45 -87 -112 -140 -200 -159
-34 -7 -183 -11 -413 -11 l-360 0 3 -97 3 -98 57 -6 c79 -9 191 -65 251 -125
76 -77 112 -153 132 -277 l6 -37 1010 0 1009 0 -2 262 -3 262 -85 12 c-490 71
-890 467 -974 963 -62 367 62 750 329 1016 106 105 196 168 337 235 99 46 280
100 339 100 62 0 59 -12 59 271 l0 259 -1009 0 -1009 0 -7 -42z m879 -470
c-23 -24 -51 -58 -64 -76 l-22 -33 25 -27 c30 -31 67 -108 66 -137 0 -15 -3
-13 -14 10 -18 38 -43 68 -76 89 l-26 16 -32 -70 c-18 -38 -36 -70 -39 -70 -4
1 -22 9 -40 18 l-32 18 45 64 46 65 -35 15 -35 15 15 35 c8 19 16 36 19 38 2
2 21 -8 41 -22 l38 -26 46 43 c82 79 142 107 74 35z m33 -504 c-15 -8 -48 -42
-72 -76 l-45 -60 31 -40 c33 -41 58 -98 58 -133 0 -12 -6 -4 -18 20 -16 37
-72 95 -90 95 -4 0 -22 -31 -41 -69 l-33 -70 -39 20 -39 20 47 65 46 64 -32
11 c-29 11 -31 15 -26 43 10 46 20 50 64 25 l40 -23 46 44 c44 42 100 79 121
79 6 0 -3 -7 -18 -15z m-22 -556 c-20 -17 -50 -50 -66 -74 l-29 -43 35 -46
c31 -41 63 -121 52 -131 -2 -3 -10 9 -17 26 -7 16 -31 46 -53 67 l-41 37 -33
-72 c-18 -40 -37 -72 -43 -72 -6 0 -24 7 -41 15 -33 17 -33 15 23 92 21 29 38
54 38 57 0 2 -13 7 -30 11 -39 9 -40 13 -21 58 l16 37 39 -26 38 -26 37 35
c39 38 108 87 123 87 5 0 -7 -14 -27 -32z m-16 -555 c-25 -27 -53 -61 -63 -76
-17 -27 -17 -28 17 -67 19 -22 39 -57 45 -79 18 -59 14 -70 -9 -24 -17 34 -75
93 -92 93 -2 0 -19 -31 -36 -70 -18 -38 -35 -70 -37 -70 -5 0 -66 30 -72 35
-2 2 17 32 43 67 l46 63 -35 15 -34 16 14 34 c8 19 16 36 19 38 2 2 21 -8 41
-22 l38 -26 46 44 c86 83 144 107 69 29z m32 -501 c-14 -9 -44 -43 -67 -75
l-43 -58 34 -45 c32 -41 55 -99 55 -134 0 -8 -9 3 -19 25 -17 38 -72 95 -91
95 -5 0 -23 -31 -40 -70 l-33 -69 -39 20 -39 20 46 63 c25 35 45 66 45 69 0 3
-13 8 -30 12 -33 7 -36 16 -19 63 l11 32 36 -25 c20 -14 39 -25 43 -25 3 0 26
18 50 41 38 35 104 78 119 78 3 0 -6 -8 -19 -17z"/>
<path d="M2650 3990 l0 -260 23 -4 c12 -2 53 -9 90 -15 155 -26 344 -105 477
-199 91 -64 226 -203 287 -295 142 -212 210 -448 201 -694 -2 -62 -4 -112 -3
-110 1 1 21 28 44 60 l42 58 -36 14 -35 15 15 36 c8 20 15 38 15 40 0 3 18 -8
40 -22 l41 -27 37 35 c36 34 111 88 122 88 4 0 -17 -24 -44 -53 -28 -29 -57
-64 -64 -78 -13 -24 -11 -29 13 -55 28 -29 40 -54 56 -109 l8 -30 -17 25 c-25
38 -79 90 -92 90 -6 0 -26 -31 -42 -69 l-31 -70 -38 19 -37 19 -17 -77 c-34
-154 -92 -289 -181 -422 -62 -95 -208 -241 -301 -303 -152 -101 -353 -178
-506 -195 l-62 -7 -3 -262 -2 -263 1009 0 1010 0 6 37 c20 124 56 200 132 277
60 60 172 116 251 125 l57 6 3 97 3 97 -403 3 c-357 3 -407 5 -441 20 -67 30
-114 76 -146 140 l-31 61 0 795 c0 562 3 806 11 832 19 64 78 131 144 165 l59
30 403 3 404 3 -3 122 -3 122 -57 6 c-79 9 -191 65 -251 125 -76 77 -112 153
-132 277 l-6 37 -1009 0 -1010 0 0 -260z m1325 -251 c-25 -23 -54 -56 -65 -75
l-21 -33 35 -46 c32 -41 62 -113 51 -123 -2 -2 -10 9 -19 26 -8 16 -32 44 -52
62 l-37 32 -35 -68 c-19 -38 -36 -71 -38 -73 -5 -5 -63 20 -70 30 -2 5 16 37
41 71 30 41 41 64 33 67 -57 18 -58 19 -46 53 16 49 20 50 62 22 l38 -26 47
44 c51 49 90 77 108 77 7 1 -8 -18 -32 -40z m25 -511 c-18 -13 -51 -49 -73
-80 l-41 -58 26 -27 c29 -31 52 -74 62 -115 9 -38 3 -35 -29 15 -15 24 -40 52
-56 61 l-28 17 -31 -68 c-17 -37 -32 -69 -34 -71 -4 -3 -64 24 -75 34 -2 2 17
32 43 68 l46 64 -35 12 c-19 6 -35 13 -35 15 0 9 31 75 36 75 3 0 21 -11 41
-25 l37 -24 47 46 c44 43 101 82 123 83 5 0 -6 -10 -24 -22z m-24 -1095 c-22
-21 -50 -54 -63 -75 l-24 -36 35 -46 c32 -42 62 -114 51 -124 -2 -2 -10 9 -19
26 -8 16 -32 44 -52 62 l-37 32 -35 -68 c-19 -38 -36 -71 -38 -73 -5 -5 -63
20 -70 30 -2 5 16 37 41 71 l46 63 -34 15 c-34 15 -34 15 -22 50 14 38 24 39
68 8 l29 -21 46 45 c49 47 90 77 107 77 5 1 -8 -16 -29 -36z m23 -516 c-19
-12 -52 -48 -73 -80 l-40 -57 26 -28 c29 -30 52 -73 62 -114 9 -37 0 -35 -20
4 -16 31 -72 88 -86 88 -4 0 -21 -30 -38 -67 -17 -37 -32 -69 -34 -71 -4 -3
-64 24 -75 34 -2 2 18 33 43 69 l47 65 -26 10 c-15 6 -31 10 -36 10 -5 0 -9 2
-9 4 0 10 31 76 36 76 3 0 21 -11 40 -24 l35 -24 46 45 c42 40 105 81 127 83
5 0 -6 -10 -25 -23z"/>
<path d="M4850 4223 c0 -40 41 -123 80 -161 40 -41 95 -69 149 -78 l41 -7 0
137 0 136 -135 0 -135 0 0 -27z"/>
<path d="M2387 3540 c-298 -50 -578 -260 -716 -536 -213 -429 -90 -950 294
-1238 127 -96 307 -171 453 -190 l52 -7 0 991 c0 937 -1 990 -17 989 -10 -1
-40 -5 -66 -9z m-184 -809 c-31 -20 -113 -119 -113 -138 0 -5 9 -18 21 -29 27
-25 59 -87 59 -116 0 -20 -3 -19 -21 12 -21 35 -66 79 -82 80 -4 0 -21 -30
-38 -67 -17 -37 -32 -69 -34 -71 -3 -3 -63 25 -74 34 -2 2 18 33 43 69 l47 65
-26 10 c-15 6 -31 10 -36 10 -12 0 -12 5 5 45 17 40 22 42 56 15 14 -11 29
-20 33 -20 5 0 32 20 60 44 51 43 103 75 122 76 6 0 -4 -9 -22 -19z"/>
<path d="M2650 2560 l0 -991 53 7 c85 11 212 51 299 95 662 333 744 1239 153
1683 -127 96 -307 171 -452 190 l-53 7 0 -991z m400 218 c-18 -13 -51 -49 -73
-80 l-41 -58 26 -27 c29 -31 52 -74 62 -115 9 -37 0 -35 -20 4 -16 31 -72 88
-86 88 -4 0 -21 -30 -38 -67 -17 -37 -32 -69 -34 -71 -4 -3 -64 24 -75 34 -2
2 18 33 43 69 l47 65 -26 10 c-15 6 -31 10 -36 10 -5 0 -9 2 -9 4 0 10 31 76
36 76 3 0 21 -11 41 -24 l36 -25 46 45 c42 42 103 82 125 84 5 0 -6 -10 -24
-22z"/>
<path d="M0 2535 l0 -845 376 0 376 0 34 34 34 34 0 777 0 777 -34 34 -34 34
-376 0 -376 0 0 -845z m398 295 c-71 -75 -78 -94 -45 -128 32 -34 57 -85 57
-113 0 -19 -6 -14 -28 22 -25 38 -77 81 -85 68 -1 -2 -17 -34 -34 -71 l-33
-68 -35 17 c-19 9 -35 21 -35 25 0 5 18 33 40 62 22 29 40 58 40 64 0 6 -13
13 -30 17 -34 8 -34 7 -18 52 14 39 20 40 65 12 l35 -22 41 41 c37 36 103 82
117 82 3 0 -20 -27 -52 -60z"/>
<path d="M4318 3357 c-15 -12 -32 -35 -38 -50 -6 -19 -10 -286 -10 -773 0
-816 -1 -797 59 -828 26 -14 85 -16 411 -16 l380 0 0 845 0 845 -387 0 c-387
0 -388 0 -415 -23z m610 -583 c-21 -15 -54 -51 -74 -80 l-37 -53 35 -40 c19
-23 40 -58 46 -80 18 -60 14 -70 -9 -23 -19 38 -84 101 -93 91 -2 -2 -18 -33
-36 -69 -18 -36 -34 -66 -35 -68 -3 -3 -64 25 -74 34 -2 2 17 31 42 65 26 34
44 65 42 70 -3 4 -18 10 -34 14 -28 6 -29 8 -19 38 16 49 22 51 66 24 l39 -26
34 36 c36 37 115 93 133 93 6 0 -6 -12 -26 -26z"/>
<path d="M0 1006 l0 -136 136 0 137 0 -6 39 c-15 111 -112 209 -226 227 l-41
7 0 -137z"/>
<path d="M5050 1131 c-44 -14 -87 -40 -120 -73 -39 -38 -80 -121 -80 -160 l0
-28 135 0 135 0 0 135 c0 134 0 135 -22 134 -13 0 -34 -4 -48 -8z"/>
</g>
</svg>
